<?xml version="1.0" encoding="utf-8"?>
<!-- Generator: Adobe Adobe Illustrator 24.2.0, SVG Export Plug-In . SVG Version: 6.00 Build 0)  -->
<svg version="1.1" id="Ebene_2" xmlns="http://www.w3.org/2000/svg" xmlns:xlink="http://www.w3.org/1999/xlink" x="0px" y="0px"
	 width="246px" height="246px" viewBox="0 0 246 246" style="enable-background:new 0 0 246 246;" xml:space="preserve">
<style type="text/css">
	.st0{fill:#113A68;}
	.st1{fill:#9E2D29;}
	.st2{fill:#9B1515;}
	.st3{fill:#FFFFFF;}
</style>
<g>
	<path class="st0" d="M166.6,210.9c-11.6,5-24.4,7.8-37.8,7.8c-52.8,0-95.6-42.8-95.6-95.6c0-2.3,0.1-4.6,0.2-6.8
		c2.4-1.8,10.8-5.2,31.7-5.2s46.4,3.4,71.6,9.4c-13,22.2-15.9,44.7-7.8,62.2C133.6,192.6,143.9,205.2,166.6,210.9"/>
	<path class="st0" d="M146.9,103.8C102.4,90.7,61.4,88.5,39.7,88.4c0-0.1,0.1-0.2,0.1-0.2c2.5-1.4,8.9-3.3,22.1-3.3
		c23.7,0,55.7,5.9,86.9,15.8C148.2,101.7,147.5,102.7,146.9,103.8"/>
	<path class="st0" d="M168.4,49.9c0.7,7.9-2.7,18.9-10.6,34.4C117.3,69.2,78.9,63.7,55.4,61.7c17.5-21,43.9-34.3,73.4-34.3
		c7.8,0,15.5,0.9,22.8,2.7l3.8,2.5C164.2,38.3,167.8,43.1,168.4,49.9"/>
	<path class="st0" d="M209.6,71.8c8.7,13.7,14,29.8,14.7,47c-3.9-2.6-8.2-5.3-13.1-8.3C214,95.5,212.6,82.5,209.6,71.8"/>
	<path class="st0" d="M206.8,144.8c4.5,2.1,9,4.5,13.2,6.7c-2.2,6.9-5.1,13.5-8.7,19.6c-0.6-4-2.2-7.4-3.5-10.3
		c-2.5-5.6-4.2-9.3-1.2-15.7C206.8,145,206.8,144.9,206.8,144.8"/>
	<path class="st0" d="M207.2,125.1c5.4,2.9,11.3,6.2,16.6,9.2c-0.1,1.2-0.3,2.4-0.5,3.7c-5.7-3.5-11.8-7-17.2-9.9
		C206.4,127.1,206.8,126.1,207.2,125.1"/>
	<path class="st1" d="M185.2,205.6c41.5-36.8,4.9-39.5,15.9-63.1c-14,12.6-44,47.2-18,64.1C164.7,168.9,207.4,157.8,185.2,205.6"/>
	<path class="st2" d="M198.1,130.8c9.6,5,24.5,13.5,33.5,20c-9.4-5.4-24.7-13-34.9-17.4c-2,3.9-4.3,7.8-7,11.8
		c-10.3,15-36.7,44.6-12.5,61.4c-51.2-7.1-57.1-49.2-33.1-86.7c0.8-1.2,1.5-2.4,2.3-3.6c-62.2-16.2-119.6-14.7-119.8,0.3
		c-14.3-6.8-26.2-20.1-2.1-21.8c9.6-0.7,65.2-2.4,125.1,16.2c3-4.9,5.8-9.6,8.2-13.9c-63.3-21.6-124.4-24-125.5-8.6
		C18.4,81,7.4,67,31.6,66.7c9.9-0.1,68.5,1.5,129.1,25.3c21.2-39.5,16.4-52.7-2-64.6c21.6,1.5,57.2,37,45.6,86.1
		c8.8,5.4,22.8,14.1,31,20.7c-8.4-5.5-22.6-13.3-31.7-17.9C202.2,121.1,200.4,125.9,198.1,130.8"/>
	<path class="st2" d="M185.2,205.6c41.5-36.8,4.9-39.5,15.9-63.1c-14,12.6-44,47.2-18,64.1C164.7,168.9,207.4,157.8,185.2,205.6"/>
</g>
</svg>
