<?xml version="1.0" encoding="UTF-8"?><svg id="Ebene_2" xmlns="http://www.w3.org/2000/svg" viewBox="0 0 495.56 422.75"><defs><style>.cls-1{fill:#9b1515;}.cls-2{fill:#9e2d29;}.cls-3{fill:#113a68;}</style></defs><g id="Ebene_1-2"><path class="cls-3" d="m62.54,333.84c-.17,11.1-1.35,17.32-4.54,23.03-5.38,9.41-14.29,14.12-27.06,14.12-11.43,0-20.34-4.2-25.38-11.94-3.87-5.88-5.55-14.62-5.55-28.24v-42.7c0-15.3,2.02-24.21,6.72-30.26,5.38-6.72,13.45-10.09,24.21-10.09,12.94,0,22.02,5.21,26.9,15.3,2.35,4.88,3.36,10.25,3.53,19.84h-16.98c-.84-15.13-4.03-20-13.11-20-9.58,0-12.78,6.55-12.78,26.39v40.35c0,19.67,3.36,26.22,13.11,26.22s13.78-6.22,13.95-22.02h16.98Z"/><path class="cls-3" d="m79.35,249.28h53.79v15.3h-35.3v37.32h29.42v15.3h-29.42v52.11h-18.49v-120.03Z"/><path class="cls-3" d="m182.23,249.28h29.59c12.94,0,19.5,2.02,24.38,7.23s7.73,14.29,7.73,24.54c0,12.95-3.53,21.52-10.59,25.55,8.24,5.21,12.1,14.62,12.1,30.09,0,11.43-3.03,21.01-8.24,26.22-4.71,4.71-10.25,6.39-21.01,6.39h-33.96v-120.03Zm29.59,51.1c9.41,0,13.62-5.71,13.62-17.99,0-13.11-4.03-18.16-14.46-18.16h-10.25v36.14h11.1Zm-.17,53.96c6.39,0,9.41-1.01,11.6-4.04,2.35-3.03,3.7-8.57,3.7-14.96,0-14.29-4.03-20-13.95-20h-12.27v39h10.93Z"/><path class="cls-3" d="m266.95,249.28h54.47v15.3h-35.98v36.48h30.43v15.3h-30.43v37.66h36.65v15.3h-55.14v-120.03Z"/><path class="cls-3" d="m360.59,369.31h-18.49v-120.03h27.91c13.62,0,20.68,2.19,26.22,8.24,5.04,5.55,7.4,13.79,7.4,26.06,0,19.84-4.2,28.58-16.14,33.45l19.16,52.28h-20.51l-16.64-50.6h-8.91v50.6Zm8.07-65.06c7.06,0,10.09-1.18,12.78-4.71,2.35-3.19,3.7-8.57,3.7-14.79,0-7.4-1.51-13.62-4.2-16.64-2.35-2.86-5.55-3.87-11.77-3.87h-9.08v40.01h8.57Z"/><path class="cls-3" d="m425.14,249.28h18.32l31.1,82.04v-82.04h17.31v120.03h-17.48l-31.94-83.04v83.04h-17.31v-120.03Z"/><path class="cls-1" d="m26.26,413.63c-.13,2.79-.57,4.36-1.66,5.8-1.57,2.14-4.27,3.27-7.8,3.27-3.71,0-6.28-1.13-7.89-3.49-1.22-1.74-1.7-4.1-1.7-8.06v-8.81c0-4.4.57-6.8,2.09-8.63,1.7-2.05,4.01-2.96,7.45-2.96,5.93,0,8.94,2.92,9.15,8.94l-4.8.18c-.31-3.36-1.57-4.84-4.27-4.84-3.27,0-4.4,1.96-4.4,7.67v8.11c0,5.67,1.13,7.63,4.45,7.63,2.88,0,4.27-1.61,4.53-5.1l4.84.3Z"/><path class="cls-1" d="m34.89,391.14h5.23v13.25h8.63v-13.25h5.23v31.12h-5.23v-13.56h-8.63v13.56h-5.23v-31.12Z"/><path class="cls-1" d="m69.25,422.27h-5.23v-31.12h9.33c3.75,0,5.75.61,7.28,2.22,1.44,1.48,2.09,3.57,2.09,6.71,0,5.23-1.4,7.67-5.01,8.85l5.89,13.34h-5.8l-5.19-12.9h-3.36v12.9Zm3.75-17c3.18,0,4.49-1.44,4.49-4.88,0-3.62-1.26-5.01-4.53-5.01h-3.79v9.89h3.84Z"/><path class="cls-1" d="m91.92,391.14h5.23v31.12h-5.23v-31.12Z"/><path class="cls-1" d="m109.19,414.03c.83,3.22,2.31,4.45,5.27,4.45,3.27,0,4.84-1.53,4.84-4.75,0-1.48-.44-2.66-1.22-3.31q-.87-.74-4.62-1.83c-5.54-1.61-7.67-4.14-7.67-9.03,0-5.62,3.27-8.85,8.98-8.85,4.93,0,7.54,2.05,8.63,6.89l-4.4,1.26c-.96-2.96-1.96-3.92-4.27-3.92-2.53,0-3.92,1.57-3.92,4.36s1.31,3.92,5.27,5.1c3.53,1.05,4.27,1.35,5.62,2.35,1.79,1.39,2.62,3.53,2.62,6.8,0,6.06-3.36,9.2-9.81,9.2-3.71,0-6.36-1-7.93-3.01-.87-1-1.35-2.22-1.87-4.4l4.49-1.31Z"/><path class="cls-1" d="m137.44,395.45h-6.98v-4.31h19.14v4.31h-6.93v26.81h-5.23v-26.81Z"/><path class="cls-1" d="m157.49,391.14h5.23v31.12h-5.23v-31.12Z"/><path class="cls-1" d="m177.38,415.99l-1.7,6.28h-5.67l9.85-31.12h4.75l9.85,31.12h-5.62l-1.7-6.28h-9.77Zm4.88-18.13l-3.79,13.91h7.59l-3.79-13.91Z"/><path class="cls-1" d="m200.53,391.14h5.14l10.24,21.45v-21.45h4.97v31.12h-4.97l-10.38-21.54v21.54h-5.01v-31.12Z"/><path class="cls-1" d="m242.25,391.14h16.39v4.31h-11.16v9.16h9.37v4.31h-9.37v13.34h-5.23v-31.12Z"/><path class="cls-1" d="m266.36,391.14h16.65v4.31h-11.47v8.94h9.68v4.32h-9.68v9.24h11.6v4.31h-16.78v-31.12Z"/><path class="cls-1" d="m291.65,391.14h5.23v26.81h11.6v4.31h-16.83v-31.12Z"/><path class="cls-1" d="m315.67,391.14h5.23v26.81h11.6v4.31h-16.83v-31.12Z"/><path class="cls-1" d="m339.61,401.82c0-4.01.61-6.28,2.09-8.11,1.74-2.09,4.14-3.01,7.89-3.01,4.01,0,6.58,1.09,8.28,3.53,1.22,1.74,1.7,3.88,1.7,7.59v9.77c0,4.01-.61,6.28-2.09,8.11-1.74,2.09-4.14,3.01-7.89,3.01-4.01,0-6.58-1.09-8.28-3.49-1.22-1.79-1.7-3.97-1.7-7.63v-9.77Zm14.73.48c0-5.36-1.26-7.32-4.75-7.32s-4.75,1.96-4.75,7.32v8.8c0,5.36,1.26,7.32,4.75,7.32s4.75-1.96,4.75-7.32v-8.8Z"/><path class="cls-1" d="m366.64,391.14h5.23l3.92,22.84,5.36-22.84h4.01l5.36,22.84,3.92-22.84h5.23l-6.54,31.12h-4.66l-5.32-21.84-5.32,21.84h-4.66l-6.54-31.12Z"/><path class="cls-1" d="m409.76,414.03c.83,3.22,2.31,4.45,5.27,4.45,3.27,0,4.84-1.53,4.84-4.75,0-1.48-.44-2.66-1.22-3.31q-.87-.74-4.62-1.83c-5.54-1.61-7.67-4.14-7.67-9.03,0-5.62,3.27-8.85,8.98-8.85,4.93,0,7.54,2.05,8.63,6.89l-4.4,1.26c-.96-2.96-1.96-3.92-4.27-3.92-2.53,0-3.92,1.57-3.92,4.36s1.31,3.92,5.27,5.1c3.53,1.05,4.27,1.35,5.62,2.35,1.79,1.39,2.62,3.53,2.62,6.8,0,6.06-3.36,9.2-9.81,9.2-3.71,0-6.36-1-7.93-3.01-.87-1-1.35-2.22-1.87-4.4l4.49-1.31Z"/><path class="cls-1" d="m433.09,391.14h5.23v13.25h8.63v-13.25h5.23v31.12h-5.23v-13.56h-8.63v13.56h-5.23v-31.12Z"/><path class="cls-1" d="m461.95,391.14h5.23v31.12h-5.23v-31.12Z"/><path class="cls-1" d="m482.44,422.27h-5.23v-31.12h8.68c3.97,0,6.02.7,7.59,2.53,1.44,1.66,2.09,3.92,2.09,7.28,0,3.62-.79,6.1-2.44,7.76-1.57,1.53-3.57,2.13-7.24,2.13h-3.44v11.42Zm3.44-15.69c3.18,0,4.49-1.61,4.49-5.62,0-2.01-.44-3.66-1.22-4.54-.74-.78-1.61-1.04-3.27-1.04h-3.53v11.2h3.53Z"/><path class="cls-3" d="m294.23,183.46c-11.59,5-24.36,7.76-37.78,7.76-52.8,0-95.61-42.8-95.61-95.61,0-2.3.07-4.59.25-6.84,2.39-1.79,10.78-5.23,31.69-5.23s46.36,3.38,71.57,9.36c-13.01,22.19-15.88,44.68-7.79,62.21,4.67,10.15,14.99,22.68,37.67,28.34"/><path class="cls-3" d="m274.56,76.41c-44.47-13.09-85.51-15.34-107.24-15.44.03-.07.05-.15.1-.23,2.53-1.41,8.92-3.33,22.12-3.33,23.7,0,55.74,5.87,86.91,15.83-.61,1.03-1.24,2.08-1.89,3.17"/><path class="cls-3" d="m296.09,22.51c.68,7.85-2.72,18.86-10.65,34.43-40.44-15.15-78.86-20.65-102.34-22.65C200.64,13.33,226.98,0,256.45,0c7.84,0,15.46.94,22.75,2.73l3.8,2.46c8.83,5.69,12.49,10.55,13.09,17.31"/><path class="cls-3" d="m337.22,44.45c8.71,13.7,14.01,29.77,14.74,47.02-3.85-2.55-8.22-5.32-13.13-8.35,2.83-15.02,1.46-28.03-1.62-38.67"/><path class="cls-3" d="m334.5,117.44c4.45,2.15,9.04,4.46,13.24,6.67-2.16,6.91-5.07,13.49-8.66,19.61-.65-3.97-2.17-7.36-3.5-10.33-2.51-5.6-4.17-9.29-1.19-15.66.04-.1.09-.2.12-.29"/><path class="cls-3" d="m334.83,97.71c5.4,2.86,11.33,6.16,16.56,9.22-.13,1.22-.3,2.45-.5,3.66-5.69-3.47-11.81-6.97-17.21-9.91.4-.99.79-1.98,1.15-2.97"/><path class="cls-2" d="m312.88,178.21c41.54-36.81,4.93-39.54,15.93-63.08-14.05,12.59-44.01,47.25-17.96,64.05-18.47-37.63,24.24-48.73,2.03-.97"/><path class="cls-1" d="m325.77,103.42c9.62,5.02,24.47,13.52,33.55,20.02-9.4-5.41-24.7-13.03-34.85-17.38-1.99,3.88-4.33,7.81-7.04,11.76-10.29,14.99-36.71,44.61-12.5,61.44-51.21-7.14-57.1-49.16-33.13-86.72.77-1.2,1.52-2.39,2.26-3.56-62.21-16.21-119.6-14.72-119.78.29-14.34-6.75-26.17-20.07-2.06-21.78,9.6-.68,65.24-2.37,125.14,16.19,3.02-4.93,5.75-9.55,8.19-13.91-63.34-21.6-124.44-24.04-125.52-8.59-13.93-7.57-24.96-21.55-.8-21.86,9.91-.13,68.54,1.49,129.13,25.33,21.2-39.52,16.43-52.7-2-64.61,21.63,1.51,57.25,37.03,45.58,86.08,8.8,5.36,22.79,14.08,31,20.72-8.38-5.49-22.62-13.31-31.72-17.93-1.31,4.76-3.11,9.61-5.44,14.53"/><path class="cls-1" d="m312.88,178.21c41.54-36.81,4.93-39.54,15.93-63.08-14.05,12.59-44.01,47.25-17.96,64.05-18.47-37.63,24.24-48.73,2.03-.97"/></g></svg>